PathFileType	4	(X/Y/Z)	C:/Users/beibeiliu/ov580/test_trc/User3\out2_training_dense_left.trc
DataRate	CameraRate	NumFrames	NumMarkers	Units	OrigDataRate	OrigDataStartFrame	OrigNumFrames
120	120	21	19	mm	120	376	500
Frame#	Time	ThumbCMC			ThumbMCP			ThumbIP			ThumbTip			IndexMCP			IndexPIP			IndexTip			MiddleMCP			MiddlePIP			MiddleTip			RingMCP			RingPIP			RingTip			PinkyMCP			PinkyPIP			PinkyTip			BackHand1			BackHand2			BackHand3	
		X0	Y0	Z0	X1	Y1	Z1	X2	Y2	Z2	X3	Y3	Z3	X4	Y4	Z4	X5	Y5	Z5	X6	Y6	Z6	X7	Y7	Z7	X8	Y8	Z8	X9	Y9	Z9	X10	Y10	Z10	X11	Y11	Z11	X12	Y12	Z12	X13	Y13	Z13	X14	Y14	Z14	X15	Y15	Z15	X16	Y16	Z16	X17	Y17	Z17	X18	Y18	Z18	
375	3.125	-72.2752	5.01858	45.7807	-51.5244	-16.5463	25.5228	-37.2544	-35.9254	6.57687	-37.9819	-52.3266	-17.0267	-65.8839	11.6788	-31.8324	-50.2831	-7.88529	-53.0522	-42.2769	-39.3024	-56.18	-89.634	17.7523	-41.7013	-77.3307	1.12676	-71.2351	-70.1413	-33.6207	-75.5475	-110.266	10.1519	-37.1279	-103.531	-3.10322	-64.9673	-98.1011	-37.9003	-71.8475	-135.039	-5.04515	-29.5612	-132.351	-18.6548	-48.8111	-122.818	-43.0553	-58.8423	-123.415	24.745	6.21317	-132.328	27.6199	37.0426	-97.3703	32.5391	31.1915	
376	3.13333	-71.9146	3.50705	44.3706	-52.2101	-23.415	27.0521	-46.9805	-43.5165	7.25869	-50.3546	-62.1537	-10.2037	-64.5297	11.6423	-34.3013	-46.4372	-5.29641	-55.3575	-40.3311	-29.07	-61.522	-91.8239	16.6452	-41.9357	-77.2002	4.35787	-70.5825	-69.1727	-27.7414	-83.9682	-111.531	4.53815	-41.1607	-109.327	-11.3531	-63.284	-97.4714	-37.8929	-69.1609	-130.359	-9.7897	-28.5077	-129.131	-29.6802	-43.0639	-112.936	-55.3516	-42.3988	-124.768	24.3428	12.1945	-128.71	28.1036	36.3575	-94.2452	30.9494	25.9462	
377	3.14167	-69.3423	3.05301	47.4485	-57.1139	-25.0309	27.3556	-53.5566	-47.2675	8.96604	-61.601	-64.9858	-7.06889	-60.985	13.633	-30.235	-44.7748	-0.129828	-52.2142	-39.0404	-23.9115	-64.5806	-87.1061	17.0931	-42.7096	-79.0139	7.04964	-68.2233	-72.9453	-24.0266	-87.9124	-106.648	1.80205	-38.0991	-105.412	-16.3313	-58.3766	-95.7736	-46.1155	-59.8319	-127.547	-13.9517	-22.8901	-124.503	-38.6645	-33.6578	-108.453	-60.0751	-22.2431	-120.904	23.3836	12.9351	-131.465	27.105	37.2795	-94.4969	32.8104	28.3	
378	3.15	-69.6161	3.88134	45.8981	-58.4363	-26.3356	28.1855	-54.3125	-50.7059	10.8804	-71.4817	-64.1481	-6.76917	-62.5403	15.3274	-30.3083	-43.7238	2.54231	-52.9101	-39.4211	-19.7221	-67.0464	-89.2992	16.0215	-39.1444	-82.8013	3.13058	-69.6735	-72.7598	-22.0475	-88.1022	-109.822	-0.243037	-32.6227	-104.556	-22.7434	-54.9622	-93.708	-54.8828	-46.021	-126.324	-19.0448	-21.2496	-119.313	-45.7176	-21.8599	-103.864	-58.7606	-4.66002	-123.887	23.5897	13.0586	-131.775	31.659	36.5241	-93.0478	35.764	31.038	
379	3.15833	-68.189	5.69065	50.0074	-57.3585	-25.0456	33.3337	-59.911	-46.1324	14.1693	-72.9255	-65.6504	-4.95546	-63.6047	16.6662	-24.8635	-49.1743	7.53932	-50.2614	-35.6834	-15.772	-65.8824	-87.582	17.3993	-39.0776	-83.0266	6.11222	-65.1754	-70.8926	-22.0312	-83.8749	-103.176	-1.76782	-34.9745	-102.874	-25.7417	-48.5081	-93.1277	-53.017	-35.9051	-121.124	-19.9607	-18.3017	-114.822	-44.8276	-14.5561	-106.684	-53.6651	11.8216	-124.345	24.8992	13.6961	-129.865	33.5115	38.3101	-89.986	36.0069	32.135	
380	3.16667	-70.2494	7.37547	47.9212	-57.7251	-24.4426	31.3303	-57.6905	-47.6641	11.7071	-76.0407	-58.9631	-4.84414	-59.1561	20.4829	-26.711	-46.9975	9.41993	-50.6784	-32.6658	-9.79618	-64.912	-88.2402	18.2092	-35.2443	-81.6887	5.98255	-65.667	-69.6591	-28.9982	-81.7049	-104.084	-1.92432	-32.5452	-97.9956	-31.2099	-44.4397	-91.5473	-53.9111	-22.1193	-121.673	-19.2394	-16.0064	-112.705	-41.6406	-8.96452	-104.91	-44.201	20.1604	-120.355	29.0697	9.33982	-124.785	35.8829	38.8498	-90.9989	37.2004	29.341	
381	3.175	-70.7253	10.8427	47.5943	-57.9512	-20.291	30.5797	-54.9877	-44.6963	9.99887	-70.6036	-59.3368	-4.68101	-60.8822	23.2378	-28.4743	-43.7809	16.469	-46.8588	-33.7194	-7.1053	-69.1702	-88.1324	18.8273	-40.2097	-79.1042	2.04227	-65.3384	-70.5339	-32.5386	-73.0666	-106.233	-1.2171	-31.2038	-97.4934	-31.1233	-38.528	-93.1961	-51.2051	-14.005	-121.226	-14.7031	-13.737	-111.681	-40.0209	-3.57146	-101.203	-35.4338	22.3842	-120.652	32.7999	10.778	-127.875	39.4429	41.4703	-92.3711	41.3781	32.7719	
382	3.18333	-66.3996	13.5522	51.0875	-59.2182	-14.7816	31.2933	-51.1647	-39.262	14.9714	-59.1115	-57.5595	-4.65951	-60.6624	26.9361	-24.3091	-42.7155	19.0685	-52.2812	-30.6425	0.655676	-68.7383	-83.4235	18.6293	-40.3558	-73.4637	-2.73827	-62.8002	-69.9662	-40.9301	-60.7434	-102.338	-3.76106	-32.6904	-97.076	-31.9102	-33.0613	-92.9421	-48.6533	-2.44707	-121.216	-17.6014	-15.4436	-108.871	-35.3551	-3.79453	-103.719	-32.2579	28.1373	-116.177	34.3821	10.4111	-126.397	39.7053	40.0058	-94.4006	44.1462	31.8698	
383	3.19167	-69.6882	17.1322	45.6646	-54.1084	-10.5651	33.7068	-48.5968	-31.2828	11.8139	-49.8695	-50.7284	-6.90006	-57.6014	32.6771	-25.4281	-44.3383	24.3232	-49.9443	-29.7316	3.09426	-68.5642	-86.7537	17.8681	-37.5627	-76.0571	-6.37126	-57.441	-65.9146	-44.596	-45.8611	-99.7015	-1.25573	-29.3646	-93.276	-30.6612	-28.9832	-89.4286	-42.2493	1.66946	-120.272	-12.4113	-15.6698	-105.943	-32.8676	-1.89285	-103.631	-24.8911	27.7102	-116.978	36.8691	11.6721	-130.186	44.1149	40.3987	-89.1712	46.839	33.7982	
384	3.2	-65.6109	19.8243	51.8717	-51.1817	-4.59285	29.9182	-36.9711	-23.6747	14.0738	-37.2849	-40.3945	-4.89928	-58.3066	33.0412	-28.6173	-42.6115	25.2651	-50.1502	-34.9219	0.374183	-68.4482	-80.7877	19.3137	-36.7384	-72.9481	-8.56629	-53.7492	-69.5516	-44.5664	-35.5352	-100.918	3.85912	-30.4529	-96.9006	-27.201	-31.749	-95.514	-39.2328	1.76087	-121.459	-3.82856	-17.5556	-107.417	-29.3654	-9.38189	-101.553	-25.7799	21.2654	-119.007	39.351	9.44902	-129.524	45.5387	37.9717	-90.5662	48.4817	29.99	
385	3.20833	-67.8826	20.4647	47.7012	-47.1179	1.34337	29.0932	-33.8896	-15.779	14.0685	-25.6133	-31.9019	-4.87176	-60.4467	31.5088	-26.3498	-39.6847	18.7473	-49.3997	-34.8883	-11.7051	-62.129	-77.5276	19.7103	-38.3265	-72.025	-10.582	-52.8762	-73.3443	-42.2774	-32.5429	-102.846	9.4524	-32.4759	-94.3177	-20.066	-38.2539	-94.4815	-36.6485	-4.0684	-124.044	2.43356	-22.5114	-113.264	-22.9958	-23.8779	-104.168	-28.6159	7.0752	-118.87	43.1138	10.8002	-125.104	46.6477	42.6328	-90.5036	47.0158	32.6088	
386	3.21667	-68.0825	21.4014	50.9269	-44.6066	4.10563	30.4624	-27.6081	-9.84883	13.3982	-19.4924	-23.3075	-5.39243	-54.9083	27.1175	-29.7653	-44.4335	4.96518	-50.5631	-39.668	-24.4152	-51.9297	-78.2575	21.2689	-40.3129	-69.434	-6.42421	-54.5854	-75.2779	-40.7611	-33.8318	-99.1249	16.4357	-36.728	-94.3344	-10.823	-46.2802	-96.1825	-33.739	-21.5221	-121.09	12.5007	-24.8689	-115.262	-16.8319	-34.9243	-108.595	-29.7348	-12.7716	-116.03	43.3743	9.79945	-123.708	47.71	41.2486	-87.7697	48.8303	32.2643	
387	3.225	-61.9297	19.6218	50.586	-42.4821	5.5446	32.9242	-26.0178	-5.31026	12.4235	-17.1016	-16.6783	-6.10397	-53.3965	20.3169	-28.6374	-44.8989	-5.11207	-45.4802	-50.5559	-33.9879	-40.5131	-74.4821	21.7016	-41.0745	-69.5409	-3.51941	-55.644	-75.6606	-38.1348	-40.5106	-98.8918	23.8328	-36.3118	-95.813	-2.49876	-53.8678	-94.4224	-31.7024	-33.4319	-122.354	20.4443	-26.3426	-120.18	-4.10587	-45.945	-112.575	-25.9357	-35.0581	-112.072	44.6551	12.7699	-122.313	49.6858	39.1085	-85.3481	46.1239	35.3003	
388	3.23333	-63.219	20.9592	49.0797	-44.7293	7.99113	34.7129	-23.641	-1.12617	13.2405	-14.7607	-11.6274	-7.23005	-57.9462	18.5487	-27.2556	-51.2214	-8.77199	-39.2915	-59.0669	-40.7272	-27.7522	-74.1092	23.9816	-40.1127	-72.4877	-1.70065	-56.8127	-75.2974	-36.5851	-44.6752	-99.5508	26.8814	-35.8111	-96.083	4.31306	-57.7424	-90.9653	-26.1726	-46.421	-120.248	23.806	-27.0264	-123.323	8.91702	-47.955	-113.583	-16.2228	-51.6518	-111.076	45.1275	16.3678	-119.799	49.0855	46.0617	-82.693	48.5142	36.6201	
389	3.24167	-68.2516	21.8686	53.544	-46.9409	11.8112	31.7826	-24.4502	3.87461	11.8807	-15.087	-4.3731	-10.131	-57.0729	17.6008	-23.3189	-53.9931	-10.7829	-35.8102	-56.2696	-40.5126	-22.0218	-79.4705	26.4633	-37.9224	-69.5324	-3.12812	-57.5371	-70.8585	-36.4348	-47.4242	-102.367	29.0692	-35.2482	-99.0533	8.70048	-59.6133	-95.9248	-21.1434	-57.3575	-125.375	25.1014	-25.7876	-124.286	13.0832	-50.2477	-117.377	-8.02349	-59.2305	-114.629	44.0877	16.776	-122.731	46.8953	46.3885	-86.005	48.1833	34.9481	
390	3.25	-62.6545	25.5104	52.8732	-44.8548	17.4606	31.6335	-25.5975	9.53635	11.8806	-15.1324	2.76763	-7.44818	-59.1955	18.6767	-21.8064	-55.7772	-10.2424	-33.8716	-56.7485	-38.1002	-21.7944	-78.4214	26.6043	-37.6437	-69.809	2.77822	-57.2016	-66.2497	-32.4182	-54.9923	-104.656	28.4143	-36.6825	-98.1129	10.3441	-59.4627	-94.0099	-21.7976	-64.6129	-127.818	22.3761	-21.9097	-128.195	12.5969	-47.106	-125.344	-4.5467	-62.2883	-113.605	45.0643	15.5333	-127.562	47.6884	43.8189	-88.1834	50.5346	36.526	
391	3.25833	-68.1458	27.7514	55.0892	-44.0844	22.6779	33.926	-24.3723	16.738	9.52588	-15.8194	8.72141	-9.2644	-59.8316	22.2063	-21.2969	-48.7268	-5.93149	-33.6827	-51.4568	-39.0852	-25.4753	-80.5038	30.017	-35.8572	-69.0339	9.54753	-57.6926	-65.1164	-28.0574	-64.0547	-101.774	28.1431	-34.0695	-103.561	12.5496	-56.1265	-94.5506	-18.1972	-67.9971	-129.108	17.2267	-20.4189	-129.705	5.01098	-43.3036	-125.425	-12.8689	-58.2267	-118.922	45.3239	15.3978	-124.1	47.6261	49.4811	-91.296	50.9259	38.8373	
392	3.26667	-65.3008	33.3094	55.6636	-40.831	27.9385	36.0384	-27.006	21.1784	15.8809	-15.3441	13.5234	-1.29349	-60.5664	26.5612	-23.3982	-46.459	2.35436	-37.6295	-43.7247	-29.9024	-37.626	-82.4962	33.3029	-32.7587	-76.1354	17.2039	-59.3156	-62.3787	-16.0995	-72.7246	-104.365	25.0229	-29.8685	-99.9768	10.711	-53.2556	-92.2733	-17.2521	-65.8652	-127.502	11.7789	-20.3519	-125.823	-2.32497	-35.7649	-117.91	-24.6524	-47.4056	-116.913	43.7316	19.7248	-125.227	47.2743	46.2763	-92.5319	53.156	37.488	
393	3.275	-66.6925	36.8401	57.986	-39.5564	33.0519	38.8537	-21.8235	26.5861	14.2558	-14.979	15.2977	-4.2997	-63.0376	33.6844	-24.3123	-44.9074	16.3483	-44.3872	-37.6973	-12.8056	-52.6485	-87.5176	36.1078	-33.0934	-77.3883	23.9964	-62.0918	-63.155	-1.14	-80.7686	-107.416	22.1297	-27.1711	-102.066	4.05835	-51.6199	-88.4016	-24.8272	-61.6146	-126.416	4.7031	-17.283	-117.958	-16.0684	-32.2491	-105.995	-41.5647	-33.0946	-122.195	41.9596	18.9227	-125.937	45.2526	47.9781	-95.8509	54.1745	40.1304	
394	3.28333	-69.13	40.6005	55.742	-40.0045	35.337	40.4747	-22.1334	28.0762	16.2531	-9.1847	16.9885	1.03305	-64.4951	45.2945	-22.1381	-45.5145	36.5541	-48.7245	-33.959	16.4289	-61.268	-90.2585	40.4788	-31.1646	-82.6735	33.2064	-60.6775	-68.8321	7.56173	-86.4802	-105.22	20.8703	-28.2679	-96.5887	0.261625	-51.07	-87.4066	-28.1297	-55.1553	-123.631	-0.556503	-15.3521	-110.744	-21.9424	-24.5585	-94.4826	-44.9819	-16.1133	-120.997	41.032	17.7602	-127.908	44.8321	46.2397	-95.9396	56.6057	37.8782	
395	3.29167	-68.0611	43.3872	54.0298	-44.2125	35.3206	37.955	-23.5448	27.6526	19.64	-9.47783	16.5869	3.03733	-68.7127	54.1133	-19.8202	-57.2931	53.7514	-48.1118	-42.6772	43.3107	-67.2383	-95.1777	42.4371	-34.6371	-87.6501	36.6443	-62.4933	-74.2127	18.6012	-87.1664	-104.026	15.9202	-31.0993	-92.947	-1.80347	-48.1377	-74.3783	-31.1799	-46.2177	-113.57	-3.29649	-15.5318	-100.58	-28.5662	-18.1471	-78.884	-43.5193	-5.43388	-121.881	38.5265	15.4342	-134.102	39.8503	46.641	-103.764	55.353	37.4008	
